<svg xmlns="http://www.w3.org/2000/svg" viewBox="0 0 200 189"><defs><style>.cls-1{fill:#fff;}</style></defs><g id="Layer_2" data-name="Layer 2"><g id="Layer_1-2" data-name="Layer 1"><path class="cls-1" d="M200,189H0V0H200ZM181.89,11.5c-1.6,1-2.45,1.48-3.19,2.06Q95.81,77.82,13,142.21A8.39,8.39,0,0,0,10.33,148c-.27,9.94-.14,19.88-.1,29.83a38.72,38.72,0,0,0,.52,4.23c9.52-7.37,18.41-14.25,27.3-21.15Q108.16,106.5,178.22,52c1.62-1.26,3.46-3.48,3.51-5.31C182.05,35.32,181.89,23.89,181.89,11.5Zm-37.14,171a21.16,21.16,0,0,0-1.83-2.08c-14.74-11.52-29.53-23-44.19-34.6-2.51-2-4-1-6,.55Q71.3,163.21,49.75,180a26.33,26.33,0,0,0-2.34,2.47Z"/><path d="M181.89,11.5c0,12.39.16,23.82-.16,35.23,0,1.83-1.89,4.05-3.51,5.31q-70,54.51-140.17,108.83c-8.89,6.9-17.78,13.78-27.3,21.15a38.72,38.72,0,0,1-.52-4.23c0-9.95-.17-19.89.1-29.83A8.39,8.39,0,0,1,13,142.21Q95.75,77.76,178.7,13.56C179.44,13,180.29,12.52,181.89,11.5Z"/><path d="M144.75,182.46H47.41A26.33,26.33,0,0,1,49.75,180q21.51-16.85,43-33.66c2-1.56,3.45-2.54,6-.55,14.66,11.63,29.45,23.08,44.19,34.6A21.16,21.16,0,0,1,144.75,182.46Z"/></g></g></svg>